<?xml version="1.0" standalone="no"?>
<!DOCTYPE svg PUBLIC "-//W3C//DTD SVG 20010904//EN"
 "http://www.w3.org/TR/2001/REC-SVG-20010904/DTD/svg10.dtd">
<svg version="1.0" xmlns="http://www.w3.org/2000/svg"
 width="500.000000pt" height="500.000000pt" viewBox="0 0 500.000000 500.000000"
 preserveAspectRatio="xMidYMid meet">
<metadata>
Created by potrace 1.11, written by Peter Selinger 2001-2013
</metadata>
<g transform="translate(0.000000,500.000000) scale(0.100000,-0.100000)"
fill="#000000" stroke="none">
<path d="M510 4982 c-85 -22 -144 -58 -207 -124 -60 -65 -88 -115 -108 -200
-22 -95 -22 -2685 0 -2771 35 -135 122 -243 242 -300 l68 -32 225 0 225 0 68
32 c123 58 217 178 246 311 8 38 11 348 11 1062 l0 1010 1038 0 c892 0 1046
-2 1097 -15 221 -56 394 -235 441 -456 45 -210 -36 -445 -199 -580 -74 -62
-139 -95 -235 -120 -68 -17 -113 -19 -496 -19 -458 0 -489 -3 -588 -57 -67
-36 -133 -111 -171 -191 -31 -66 -32 -70 -35 -236 -5 -198 8 -261 68 -354 62
-97 140 -147 288 -187 436 -117 823 -531 1036 -1108 69 -185 126 -454 126
-591 l0 -56 587 0 586 0 -7 101 c-41 637 -335 1298 -773 1741 -48 49 -84 89
-82 91 2 2 36 22 74 44 207 121 417 326 547 535 105 170 188 385 224 583 28
153 25 454 -5 595 -141 660 -617 1137 -1279 1283 -96 21 -111 21 -1522 24
-1318 2 -1430 1 -1490 -15z"/>
<path d="M450 1084 c-119 -31 -224 -137 -255 -259 -21 -84 -21 -466 0 -550 30
-116 115 -209 229 -251 45 -17 80 -19 306 -19 226 0 261 2 306 19 114 42 199
135 229 251 11 45 15 114 15 281 0 194 -2 230 -20 285 -38 122 -133 212 -255
244 -81 21 -474 20 -555 -1z"/>
</g>
</svg>
