<?xml version="1.0" standalone="no"?>
<!DOCTYPE svg PUBLIC "-//W3C//DTD SVG 20010904//EN"
 "http://www.w3.org/TR/2001/REC-SVG-20010904/DTD/svg10.dtd">
<svg version="1.0" xmlns="http://www.w3.org/2000/svg"
 width="500.000000pt" height="500.000000pt" viewBox="0 0 500.000000 500.000000"
 preserveAspectRatio="xMidYMid meet">
<metadata>
Created by potrace 1.11, written by Peter Selinger 2001-2013
</metadata>
<g transform="translate(0.000000,500.000000) scale(0.100000,-0.100000)"
fill="#000000" stroke="none">
<path d="M510 4987 c-128 -36 -229 -121 -288 -244 l-37 -78 -3 -1370 c-2
-1340 -2 -1371 17 -1435 47 -155 179 -275 339 -309 68 -14 316 -14 384 0 79
17 151 54 213 111 65 59 100 114 126 199 18 58 19 110 19 1085 l0 1024 1058
-2 1057 -3 65 -23 c306 -110 473 -430 384 -733 -55 -186 -196 -333 -384 -400
-64 -23 -75 -24 -540 -29 -438 -5 -478 -7 -520 -24 -123 -53 -209 -143 -250
-266 -20 -58 -21 -81 -18 -244 3 -174 4 -183 31 -240 54 -116 157 -208 264
-235 217 -57 378 -141 545 -285 356 -306 635 -884 674 -1395 l7 -91 589 0 589
0 -5 43 c-3 23 -8 74 -11 112 -18 208 -78 482 -153 691 -136 378 -325 687
-606 990 l-94 100 53 28 c29 15 81 48 116 73 241 173 406 367 530 618 127 259
177 502 166 800 -9 239 -59 433 -167 650 -223 447 -617 750 -1128 867 l-97 22
-1440 3 c-1120 1 -1450 -1 -1485 -10z"/>
<path d="M443 1086 c-103 -33 -185 -106 -232 -205 l-26 -56 0 -275 0 -275 32
-66 c39 -79 102 -140 181 -177 l57 -27 275 0 275 0 66 32 c79 39 140 102 177
181 l27 57 0 275 0 275 -27 57 c-37 79 -98 142 -177 181 l-65 32 -261 2 c-195
2 -270 -1 -302 -11z"/>
</g>
</svg>
