<?xml version="1.0" standalone="no"?>
<!DOCTYPE svg PUBLIC "-//W3C//DTD SVG 20010904//EN"
 "http://www.w3.org/TR/2001/REC-SVG-20010904/DTD/svg10.dtd">
<svg version="1.0" xmlns="http://www.w3.org/2000/svg"
 width="500.000000pt" height="500.000000pt" viewBox="0 0 500.000000 500.000000"
 preserveAspectRatio="xMidYMid meet">
<metadata>
Created by potrace 1.11, written by Peter Selinger 2001-2013
</metadata>
<g transform="translate(0.000000,500.000000) scale(0.100000,-0.100000)"
fill="#000000" stroke="none">
<path d="M511 4984 c-157 -42 -275 -161 -316 -319 -13 -52 -15 -226 -15 -1386
0 -854 4 -1345 10 -1380 29 -151 147 -283 300 -334 69 -23 340 -28 438 -9 170
35 310 176 342 344 7 36 10 410 11 1063 l0 1007 1029 0 c988 0 1088 -3 1155
-29 241 -96 386 -285 402 -526 17 -268 -148 -514 -407 -606 -63 -22 -77 -23
-540 -29 -438 -5 -479 -7 -520 -24 -123 -53 -209 -143 -250 -266 -20 -58 -21
-81 -18 -244 3 -179 3 -182 34 -246 64 -133 154 -202 319 -245 375 -98 713
-414 940 -880 40 -82 75 -159 78 -170 3 -11 15 -45 27 -75 12 -30 23 -62 25
-70 2 -8 14 -55 28 -105 25 -87 40 -162 53 -253 3 -24 7 -51 9 -60 2 -9 4 -45
4 -79 l1 -63 589 0 588 0 -3 27 c-1 16 -5 64 -8 108 -3 44 -8 89 -10 100 -2
11 -7 45 -11 75 -22 171 -86 411 -162 610 -93 242 -263 542 -408 719 -65 79
-141 165 -199 225 l-67 69 62 34 c104 58 248 171 346 270 316 325 477 746 460
1207 -6 172 -26 285 -77 438 -188 563 -622 951 -1220 1090 l-95 22 -1435 3
c-1236 2 -1442 0 -1489 -13z"/>
<path d="M435 1082 c-105 -37 -177 -102 -224 -201 l-26 -56 0 -275 c0 -263 1
-277 22 -323 33 -71 80 -125 144 -167 85 -55 136 -62 414 -58 l240 3 60 30
c108 54 181 142 205 249 11 49 14 452 4 516 -17 105 -98 211 -203 263 l-65 32
-261 2 c-226 2 -267 0 -310 -15z"/>
</g>
</svg>
